<svg xmlns="http://www.w3.org/2000/svg" viewBox="-40 -40 592 592" width="592" height="592">
  <rect x="-40" y="-40" width="592" height="592" rx="48" ry="48" fill="white"/>
  <path d="M 205.964,262.841 L 249.155,306.03200000000004" fill="none" stroke="rgb(0,47,167)" stroke-width="14" stroke-linecap="butt" stroke-linejoin="miter" stroke-miterlimit="10"/>
  <path d="M 227.089,226.16500000000002 L 285.833,284.909" fill="none" stroke="rgb(0,47,167)" stroke-width="14" stroke-linecap="butt" stroke-linejoin="miter" stroke-miterlimit="10"/>
  <path d="M 264.935,206.209 L 305.78900000000004,247.063" fill="none" stroke="rgb(0,47,167)" stroke-width="14" stroke-linecap="butt" stroke-linejoin="miter" stroke-miterlimit="10"/>
  <path d="M 100.58,352.674 L 159.324,411.418" fill="none" stroke="rgb(0,47,167)" stroke-width="14" stroke-linecap="butt" stroke-linejoin="miter" stroke-miterlimit="10"/>
  <path d="M 348.207,105.046 L 406.951,163.792" fill="none" stroke="rgb(0,47,167)" stroke-width="14" stroke-linecap="butt" stroke-linejoin="miter" stroke-miterlimit="10"/>
  <path d="M 188.868,449.77799999999996 C 180.59699999999998,458.049 167.23799999999997,458.049 159.01299999999998,449.82399999999996 C 151.96899999999997,442.78 150.878,431.87399999999997 156.37699999999998,423.37699999999995 C 171.463,399.83799999999997 169.737,363.75699999999995 167.41899999999998,344.53499999999997 C 174.87199999999999,345.44399999999996 179.825,346.39799999999997 180.50699999999998,346.53499999999997 C 181.77899999999997,346.80699999999996 193.548,349.306 210.362,350.306 C 212.224,376.52599999999995 210.952,415.969 191.822,446.097 C 190.868,447.597 189.868,448.77899999999994 188.868,449.77799999999996 Z" fill="none" stroke="rgb(0,47,167)" stroke-width="14" stroke-linecap="butt" stroke-linejoin="miter" stroke-miterlimit="10"/>
  <path d="M 446.067,191.76 C 415.66700000000003,211.07299999999998 376.54200000000003,212.391 350.458,210.392 C 335.872,209.347 325.37399999999997,207.21099999999998 322.602,206.62099999999998 C 319.012,205.84799999999998 313.832,205.02999999999997 307.652,204.39299999999997 C 283.113,201.75799999999998 242.58,202.302 222.449,222.433 C 201.091,243.791 202.09000000000003,285.234 204.49900000000002,307.54699999999997 C 195.502,306.54799999999994 189.54999999999998,305.32 189.277,305.229 C 186.551,304.683 176.098,302.683 161.693,301.638 C 159.64800000000002,270.78299999999996 162.465,222.88799999999998 192.684,192.67 C 223.085,162.26899999999998 270.798,159.543 301.563,161.588 C 319.19399999999996,162.679 331.23600000000005,165.35899999999998 331.463,165.40499999999997 C 332.14500000000004,165.54199999999997 337.052,166.541 344.595,167.44899999999998 C 363.81800000000004,169.767 399.853,171.35599999999997 423.346,156.31599999999997 C 431.843,150.81699999999998 442.75,151.909 449.794,158.952 C 454.202,163.724 456.519,169.676 455.882,176.03699999999998 C 455.156,182.581 451.52,188.30599999999998 446.067,191.76 Z" fill="none" stroke="rgb(0,47,167)" stroke-width="14" stroke-linecap="butt" stroke-linejoin="miter" stroke-miterlimit="10"/>
  <path d="M 319.332,319.315 C 289.113,349.534 241.218,352.35100000000006 210.363,350.30600000000004 C 193.549,349.30600000000004 181.78,346.807 180.508,346.535 C 179.82600000000002,346.398 174.87300000000002,345.444 167.42000000000002,344.535 C 148.15300000000002,342.26300000000003 112.11800000000001,340.582 88.62400000000001,355.623 C 80.126,361.122 69.22100000000002,360.031 62.17700000000002,352.987 C 53.95200000000002,344.761 53.95200000000001,331.40200000000004 62.22300000000001,323.13100000000003 C 63.22300000000001,322.13100000000003 64.40400000000002,321.132 65.90400000000002,320.178 C 96.03100000000002,301.047 135.47500000000002,299.77500000000003 161.69500000000002,301.63800000000003 C 176.10000000000002,302.68300000000005 186.55100000000002,304.682 189.27800000000002,305.228 C 189.55100000000002,305.319 195.503,306.546 204.5,307.545 C 226.858,309.909 268.20900000000006,310.908 289.56600000000003,289.55 C 309.697,269.419 310.24300000000005,228.977 307.65200000000004,204.392 C 313.83200000000005,205.028 319.014,205.847 322.603,206.62 C 325.375,207.21 335.87199999999996,209.34600000000003 350.45799999999997,210.39100000000002 C 352.45799999999997,241.20100000000002 349.73199999999997,288.915 319.332,319.315 Z" fill="none" stroke="rgb(0,47,167)" stroke-width="14" stroke-linecap="butt" stroke-linejoin="miter" stroke-miterlimit="10"/>
  <path d="M 320.24,65.933 C 323.693,60.480000000000004 329.419,56.845000000000006 335.962,56.117000000000004 C 342.324,55.481 348.277,57.79900000000001 353.049,62.206 C 360.092,69.25 361.182,80.156 355.683,88.653 C 340.643,112.147 342.23299999999995,148.18300000000002 344.59499999999997,167.449 C 337.05199999999996,166.54000000000002 332.145,165.541 331.464,165.405 C 331.236,165.359 319.19399999999996,162.679 301.563,161.588 C 299.608,135.458 300.927,96.333 320.24,65.933 Z" fill="none" stroke="rgb(0,47,167)" stroke-width="14" stroke-linecap="butt" stroke-linejoin="miter" stroke-miterlimit="10"/>
</svg>
