<svg xmlns="http://www.w3.org/2000/svg" xmlns:xlink="http://www.w3.org/1999/xlink" viewBox="0 0 512 512" width="32" height="32" preserveAspectRatio="xMidYMid meet"><rect width="512" height="512" rx="80" ry="80" fill="#ffffff"/><defs><clipPath id="__lottie_element_2"><rect width="512" height="512" x="0" y="0"></rect></clipPath></defs><g clip-path="url(#__lottie_element_2)"><g style="display: block;" transform="translate(256,256) scale(1.1) translate(-256,-256)" opacity="1"><g opacity="1" transform="matrix(1,0,0,1,330.39,111.46)"><path stroke-linecap="butt" stroke-linejoin="miter" fill="#002FA7" stroke-miterlimit="10" stroke="rgb(0,47,167)" stroke-opacity="1" stroke-width="22" d=" M-10.15,-45.53 C-6.70,-50.98 -0.97,-54.61 5.56,-55.34 C11.92,-55.98 17.88,-53.66 22.65,-49.25 C29.69,-42.21 30.78,-31.30 25.28,-22.81 C10.24,0.68 11.83,36.71 14.19,55.98 C6.65,55.07 1.75,54.07 1.06,53.93 C0.84,53.89 -11.20,51.21 -28.83,50.12 C-30.78,23.99 -29.46,-15.13 -10.15,-45.53z"></path></g><g opacity="1" transform="matrix(1,0,0,1,203.20,282.75)"><path stroke-linecap="butt" stroke-linejoin="miter" fill="#002FA7" stroke-miterlimit="10" stroke="rgb(0,47,167)" stroke-opacity="1" stroke-width="22" d=" M116.12,36.55 C85.90,66.77 38.01,69.59 7.15,67.54 C-9.65,66.54 -21.42,64.05 -22.69,63.77 C-23.37,63.64 -28.33,62.68 -35.78,61.77 C-55.05,59.50 -91.08,57.82 -114.58,72.86 C-123.07,78.36 -133.98,77.27 -141.02,70.23 C-149.25,62.00 -149.25,48.64 -140.98,40.37 C-139.98,39.37 -138.80,38.37 -137.30,37.42 C-107.17,18.29 -67.73,17.01 -41.50,18.88 C-27.10,19.92 -16.65,21.92 -13.92,22.47 C-13.65,22.56 -7.70,23.78 1.29,24.78 C23.65,27.15 65.00,28.15 86.36,6.79 C106.49,-13.33 107.03,-53.77 104.44,-78.36 C110.62,-77.72 115.80,-76.91 119.39,-76.13 C122.16,-75.54 132.66,-73.41 147.25,-72.36 C149.25,-41.55 146.52,6.15 116.12,36.55z"></path></g><g opacity="1" transform="matrix(1,0,0,1,308.08,229.18)"><path stroke-linecap="butt" stroke-linejoin="miter" fill-opacity="0" stroke-miterlimit="10" stroke="rgb(0,47,167)" stroke-opacity="1" stroke-width="22" d=" M137.98,-37.42 C107.58,-18.10 68.45,-16.79 42.37,-18.79 C27.78,-19.83 17.29,-21.97 14.51,-22.56 C10.92,-23.33 5.74,-24.15 -0.43,-24.78 C-24.97,-27.42 -65.50,-26.87 -85.63,-6.74 C-106.99,14.60 -105.99,56.05 -103.58,78.36 C-112.58,77.36 -118.53,76.13 -118.80,76.04 C-121.53,75.50 -131.98,73.50 -146.39,72.45 C-148.43,41.60 -145.61,-6.29 -115.40,-36.51 C-84.99,-66.91 -37.28,-69.63 -6.52,-67.59 C11.10,-66.50 23.15,-63.82 23.37,-63.77 C24.06,-63.63 28.96,-62.64 36.51,-61.73 C55.73,-59.41 91.76,-57.82 115.26,-72.86 C123.75,-78.36 134.66,-77.27 141.71,-70.23 C146.11,-65.45 148.43,-59.50 147.79,-53.14 C147.07,-46.60 143.43,-40.87 137.98,-37.42z"></path></g><g opacity="1" transform="matrix(1,0,0,1,181.55,401.29)"><path stroke-linecap="butt" stroke-linejoin="miter" fill-opacity="0" stroke-miterlimit="10" stroke="rgb(0,47,167)" stroke-opacity="1" stroke-width="22" d=" M7.31,48.48 C-0.95,56.75 -14.31,56.75 -22.53,48.53 C-29.58,41.48 -30.67,30.58 -25.17,22.08 C-10.08,-1.45 -11.81,-37.53 -14.13,-56.75 C-6.67,-55.84 -1.72,-54.89 -1.04,-54.75 C0.22,-54.48 11.99,-51.98 28.81,-50.98 C30.67,-24.76 29.40,14.67 10.27,44.80 C9.31,46.30 8.31,47.48 7.31,48.48z"></path></g></g></g></svg>